# xmcd CD database file
#
# Track frame offsets:
#	150
#	21077
#	56382
#	83825
#	99497
#	121875
#	147687
#	176745
#	204525
#	227250
#	248605
#	287655
#
# Disc length: 4145 seconds
#
# Revision: 0
# Processed by: cddbd v1.5.2PL0 Copyright (c) Steve Scherf et al.
# Submitted via: CDex 1.51
#
DISCID=9d102f0c
DTITLE=Jim Galloway and Art Hodes - LIve from Toronto's Cafe des Copains
DYEAR=1988
DGENRE=Jazz
TTITLE0=I Would Do Most Anything
TTITLE1=Exactly Like You
TTITLE2=Some Of These Days
TTITLE3=The Preacher
TTITLE4=Squeeze Me
TTITLE5=Doing The New Lowdown
TTITLE6=Tennessee Waltz
TTITLE7=Dear Old Southland
TTITLE8=Tomorrow's Blues
TTITLE9=If I Had You
TTITLE10=Just A Closer Walk With Thee
TTITLE11=Just A Little While To Stay Here
EXTD=YEAR: 1988
EXTT0=
EXTT1=
EXTT2=
EXTT3=
EXTT4=
EXTT5=
EXTT6=
EXTT7=
EXTT8=
EXTT9=
EXTT10=
EXTT11=
PLAYORDER=
